<svg width="382" height="26" viewBox="0 0 382 26" fill="none" xmlns="http://www.w3.org/2000/svg">
<path d="M21.5723 4.41602C21.1152 4.19336 20.5879 3.95898 19.9902 3.71289C19.3926 3.45508 18.707 3.22656 17.9336 3.02734C17.1719 2.82813 16.3105 2.66406 15.3496 2.53516C14.3887 2.39453 13.3223 2.32422 12.1504 2.32422C10.7324 2.32422 9.4668 2.40625 8.35352 2.57031C7.25195 2.73437 6.31445 2.99219 5.54102 3.34375C4.7793 3.68359 4.19336 4.11719 3.7832 4.64453C3.38477 5.17188 3.18555 5.79883 3.18555 6.52539C3.18555 7.13477 3.37305 7.66797 3.74805 8.125C4.13477 8.58203 4.65039 8.98633 5.29492 9.33789C5.95117 9.68945 6.71289 10.0117 7.58008 10.3047C8.45898 10.5859 9.38477 10.8555 10.3574 11.1133C11.3418 11.3594 12.3496 11.6113 13.3809 11.8691C14.4238 12.127 15.4316 12.4082 16.4043 12.7129C17.3887 13.0059 18.3145 13.3398 19.1816 13.7148C20.0605 14.0781 20.8223 14.5059 21.4668 14.998C22.123 15.4902 22.6387 16.0527 23.0137 16.6855C23.4004 17.3184 23.5938 18.0508 23.5938 18.8828C23.5938 19.7852 23.4238 20.5762 23.084 21.2559C22.7441 21.9238 22.2812 22.5039 21.6953 22.9961C21.1211 23.4766 20.4414 23.8809 19.6562 24.209C18.8828 24.5254 18.0508 24.7773 17.1602 24.9648C16.2812 25.1523 15.3672 25.2812 14.418 25.3516C13.4805 25.4336 12.5547 25.4746 11.6406 25.4746C9.54297 25.4746 7.63867 25.3223 5.92773 25.0176C4.22852 24.7129 2.60547 24.2969 1.05859 23.7695V21.0801C2.65234 22.0293 4.33398 22.6797 6.10352 23.0312C7.88477 23.3828 9.75391 23.5586 11.7109 23.5586C13.0938 23.5586 14.3711 23.4766 15.543 23.3125C16.7148 23.1484 17.7285 22.8906 18.584 22.5391C19.4395 22.1758 20.1016 21.707 20.5703 21.1328C21.0508 20.5586 21.291 19.8555 21.291 19.0234C21.291 18.3555 21.0977 17.7695 20.7109 17.2656C20.3359 16.7617 19.8203 16.3223 19.1641 15.9473C18.5195 15.5605 17.7578 15.2207 16.8789 14.9277C16.0117 14.6348 15.0918 14.3652 14.1191 14.1191C13.1465 13.8613 12.1387 13.6152 11.0957 13.3809C10.0645 13.1348 9.0625 12.8711 8.08984 12.5898C7.11719 12.3086 6.19141 11.9922 5.3125 11.6406C4.44531 11.2891 3.68359 10.8789 3.02734 10.4102C2.38281 9.92969 1.86719 9.37891 1.48047 8.75781C1.10547 8.13672 0.917969 7.41602 0.917969 6.5957C0.917969 5.78711 1.07031 5.07227 1.375 4.45117C1.67969 3.81836 2.0957 3.27344 2.62305 2.81641C3.16211 2.35938 3.78906 1.97852 4.50391 1.67383C5.21875 1.35742 5.98047 1.11133 6.78906 0.935547C7.60938 0.748047 8.45898 0.613281 9.33789 0.53125C10.2168 0.449219 11.084 0.408203 11.9395 0.408203C12.877 0.408203 13.7617 0.449219 14.5938 0.53125C15.4375 0.613281 16.2461 0.724609 17.0195 0.865234C17.8047 0.994141 18.5664 1.14648 19.3047 1.32227C20.0547 1.49805 20.8105 1.68555 21.5723 1.88477V4.41602ZM52.2637 25V22.3281C51.4199 22.7852 50.459 23.207 49.3809 23.5938C48.3145 23.9805 47.1836 24.3145 45.9883 24.5957C44.8047 24.877 43.5859 25.0938 42.332 25.2461C41.0781 25.3984 39.8477 25.4746 38.6406 25.4746C37.0703 25.4746 35.6582 25.334 34.4043 25.0527C33.1621 24.7715 32.1074 24.3555 31.2402 23.8047C30.373 23.2422 29.7051 22.5508 29.2363 21.7305C28.7676 20.8984 28.5332 19.9375 28.5332 18.8477C28.5332 17.7695 28.8027 16.8203 29.3418 16C29.8926 15.168 30.6719 14.4473 31.6797 13.8379C32.6875 13.2168 33.9004 12.6953 35.3184 12.2734C36.748 11.8398 38.3418 11.4766 40.0996 11.1836C41.8574 10.8789 43.7559 10.6328 45.7949 10.4453C47.8457 10.2461 50.002 10.082 52.2637 9.95312V8.10742C52.2637 7.35742 52.123 6.69531 51.8418 6.12109C51.5605 5.54687 51.168 5.04883 50.6641 4.62695C50.1602 4.19336 49.5684 3.83594 48.8887 3.55469C48.209 3.26172 47.4707 3.02734 46.6738 2.85156C45.8887 2.67578 45.0566 2.55273 44.1777 2.48242C43.3105 2.40039 42.4375 2.35938 41.5586 2.35938C40.375 2.35938 39.2969 2.41797 38.3242 2.53516C37.3516 2.65234 36.4434 2.81641 35.5996 3.02734C34.7559 3.22656 33.9473 3.46094 33.1738 3.73047C32.4004 4 31.6211 4.28711 30.8359 4.5918V2.02539C32.4648 1.5918 34.1992 1.2168 36.0391 0.900391C37.8906 0.572266 39.8535 0.408203 41.9277 0.408203C43.6855 0.408203 45.3262 0.560547 46.8496 0.865234C48.373 1.1582 49.6973 1.63281 50.8223 2.28906C51.9473 2.94531 52.832 3.79492 53.4766 4.83789C54.1211 5.86914 54.4434 7.12891 54.4434 8.61719V25H52.2637ZM52.2637 11.9043C48.4316 12.1152 45.1562 12.4141 42.4375 12.8008C39.7305 13.1875 37.5156 13.6621 35.793 14.2246C34.0703 14.7871 32.8047 15.4434 31.9961 16.1934C31.1992 16.9434 30.8008 17.793 30.8008 18.7422C30.8008 19.5156 30.9941 20.2012 31.3809 20.7988C31.7793 21.3965 32.3477 21.9004 33.0859 22.3105C33.8242 22.709 34.7207 23.0137 35.7754 23.2246C36.8301 23.4238 38.0137 23.5234 39.3262 23.5234C40.0996 23.5234 40.8965 23.4824 41.7168 23.4004C42.5488 23.3066 43.375 23.1836 44.1953 23.0312C45.0156 22.8672 45.8242 22.6797 46.6211 22.4688C47.418 22.2461 48.168 22.0059 48.8711 21.748C49.5742 21.4902 50.2129 21.2148 50.7871 20.9219C51.373 20.6289 51.8652 20.3301 52.2637 20.0254V11.9043ZM74.6406 25H71.3535L59.2949 0.847656H61.7559L73.0586 23.4883L84.3613 0.847656H86.8047L74.6406 25ZM116.195 23.7344C115.211 24.0391 114.297 24.3027 113.453 24.5254C112.609 24.7363 111.777 24.9062 110.957 25.0352C110.137 25.1758 109.299 25.2754 108.443 25.334C107.6 25.4043 106.668 25.4395 105.648 25.4395C103.281 25.4395 101.143 25.1523 99.2324 24.5781C97.3223 24.0039 95.6934 23.1836 94.3457 22.1172C93.0098 21.0391 91.9785 19.7383 91.252 18.2148C90.5254 16.6914 90.1621 14.9805 90.1621 13.082C90.1621 11.2422 90.5078 9.55469 91.1992 8.01953C91.9023 6.48438 92.8809 5.16602 94.1348 4.06445C95.3887 2.96289 96.8887 2.10742 98.6348 1.49805C100.381 0.888672 102.309 0.583984 104.418 0.583984C106.609 0.583984 108.561 0.876953 110.271 1.46289C111.982 2.04883 113.424 2.88672 114.596 3.97656C115.768 5.06641 116.658 6.39062 117.268 7.94922C117.877 9.49609 118.182 11.2422 118.182 13.1875V13.7324H92.4297C92.5586 15.2324 92.9336 16.5859 93.5547 17.793C94.1758 19 95.0547 20.0254 96.1914 20.8691C97.3398 21.7129 98.7461 22.3633 100.41 22.8203C102.086 23.2656 104.037 23.4883 106.264 23.4883C107.213 23.4883 108.174 23.4238 109.146 23.2949C110.119 23.166 111.051 22.9961 111.941 22.7852C112.832 22.5625 113.646 22.3164 114.385 22.0469C115.123 21.7656 115.727 21.4785 116.195 21.1855V23.7344ZM116.02 11.8164C115.938 10.5859 115.662 9.41406 115.193 8.30078C114.725 7.17578 114.021 6.18555 113.084 5.33008C112.158 4.47461 110.975 3.79492 109.533 3.29102C108.104 2.78711 106.387 2.53516 104.383 2.53516C102.496 2.53516 100.844 2.78711 99.4258 3.29102C98.0078 3.79492 96.8066 4.47461 95.8223 5.33008C94.8379 6.17383 94.0645 7.1582 93.502 8.2832C92.9395 9.39648 92.582 10.5742 92.4297 11.8164H116.02ZM253.762 12.9414C253.762 15.1094 253.369 16.9844 252.584 18.5664C251.799 20.1367 250.721 21.4375 249.35 22.4688C247.979 23.4883 246.361 24.2441 244.498 24.7363C242.635 25.2285 240.625 25.4746 238.469 25.4746C236.301 25.4746 234.279 25.2285 232.404 24.7363C230.529 24.2441 228.9 23.4883 227.518 22.4688C226.135 21.4375 225.051 20.1367 224.266 18.5664C223.48 16.9844 223.088 15.1094 223.088 12.9414C223.088 11.5 223.27 10.1934 223.633 9.02148C223.996 7.83789 224.506 6.7832 225.162 5.85742C225.818 4.91992 226.609 4.11133 227.535 3.43164C228.473 2.75195 229.51 2.18945 230.646 1.74414C231.795 1.28711 233.025 0.953125 234.338 0.742188C235.65 0.519531 237.027 0.408203 238.469 0.408203C240.625 0.408203 242.635 0.654297 244.498 1.14648C246.361 1.63867 247.979 2.40039 249.35 3.43164C250.721 4.45117 251.799 5.75195 252.584 7.33398C253.369 8.9043 253.762 10.7734 253.762 12.9414ZM251.494 12.9414C251.494 11.2305 251.213 9.71875 250.65 8.40625C250.1 7.09375 249.279 5.99219 248.189 5.10156C247.1 4.19922 245.74 3.51953 244.111 3.0625C242.494 2.59375 240.613 2.35938 238.469 2.35938C236.324 2.35938 234.432 2.59375 232.791 3.0625C231.162 3.53125 229.797 4.2168 228.695 5.11914C227.594 6.00977 226.762 7.11719 226.199 8.44141C225.637 9.75391 225.355 11.2539 225.355 12.9414C225.355 14.6523 225.637 16.1641 226.199 17.4766C226.762 18.7891 227.594 19.8965 228.695 20.7988C229.797 21.6895 231.162 22.3691 232.791 22.8379C234.432 23.2949 236.324 23.5234 238.469 23.5234C240.613 23.5234 242.494 23.2949 244.111 22.8379C245.74 22.3691 247.1 21.6895 248.189 20.7988C249.279 19.8965 250.1 18.7891 250.65 17.4766C251.213 16.1641 251.494 14.6523 251.494 12.9414ZM284.98 23.084C284.137 23.4355 283.299 23.7578 282.467 24.0508C281.646 24.3438 280.791 24.5957 279.9 24.8066C279.01 25.0176 278.072 25.1816 277.088 25.2988C276.104 25.416 275.031 25.4746 273.871 25.4746C272.441 25.4746 271.064 25.3574 269.74 25.123C268.428 24.8887 267.203 24.5371 266.066 24.0684C264.93 23.5996 263.898 23.0195 262.973 22.3281C262.047 21.625 261.25 20.8105 260.582 19.8848C259.926 18.959 259.416 17.916 259.053 16.7559C258.701 15.5957 258.525 14.3242 258.525 12.9414C258.525 11.5586 258.701 10.2871 259.053 9.12695C259.416 7.9668 259.926 6.92383 260.582 5.99805C261.25 5.07227 262.047 4.26367 262.973 3.57227C263.898 2.86914 264.93 2.2832 266.066 1.81445C267.203 1.3457 268.428 0.994141 269.74 0.759766C271.053 0.525391 272.43 0.408203 273.871 0.408203C275.031 0.408203 276.104 0.466797 277.088 0.583984C278.072 0.701172 279.01 0.865234 279.9 1.07617C280.791 1.28711 281.646 1.53906 282.467 1.83203C283.299 2.11328 284.137 2.42969 284.98 2.78125V5.41797C284.312 4.99609 283.598 4.59766 282.836 4.22266C282.074 3.84766 281.248 3.51953 280.357 3.23828C279.479 2.95703 278.535 2.73437 277.527 2.57031C276.52 2.40625 275.441 2.32422 274.293 2.32422C271.973 2.32422 269.963 2.57617 268.264 3.08008C266.564 3.58398 265.158 4.29883 264.045 5.22461C262.943 6.13867 262.123 7.25195 261.584 8.56445C261.057 9.86523 260.793 11.3242 260.793 12.9414C260.793 14.5586 261.057 16.0176 261.584 17.3184C262.123 18.6191 262.943 19.7324 264.045 20.6582C265.158 21.5723 266.564 22.2812 268.264 22.7852C269.963 23.2773 271.973 23.5234 274.293 23.5234C275.441 23.5234 276.525 23.4414 277.545 23.2773C278.576 23.1133 279.537 22.8906 280.428 22.6094C281.33 22.3281 282.156 22.0059 282.906 21.6426C283.668 21.2676 284.359 20.875 284.98 20.4648V23.084ZM315.848 23.7344C314.863 24.0391 313.949 24.3027 313.105 24.5254C312.262 24.7363 311.43 24.9062 310.609 25.0352C309.789 25.1758 308.951 25.2754 308.096 25.334C307.252 25.4043 306.32 25.4395 305.301 25.4395C302.934 25.4395 300.795 25.1523 298.885 24.5781C296.975 24.0039 295.346 23.1836 293.998 22.1172C292.662 21.0391 291.631 19.7383 290.904 18.2148C290.178 16.6914 289.814 14.9805 289.814 13.082C289.814 11.2422 290.16 9.55469 290.852 8.01953C291.555 6.48438 292.533 5.16602 293.787 4.06445C295.041 2.96289 296.541 2.10742 298.287 1.49805C300.033 0.888672 301.961 0.583984 304.07 0.583984C306.262 0.583984 308.213 0.876953 309.924 1.46289C311.635 2.04883 313.076 2.88672 314.248 3.97656C315.42 5.06641 316.311 6.39062 316.92 7.94922C317.529 9.49609 317.834 11.2422 317.834 13.1875V13.7324H292.082C292.211 15.2324 292.586 16.5859 293.207 17.793C293.828 19 294.707 20.0254 295.844 20.8691C296.992 21.7129 298.398 22.3633 300.062 22.8203C301.738 23.2656 303.689 23.4883 305.916 23.4883C306.865 23.4883 307.826 23.4238 308.799 23.2949C309.771 23.166 310.703 22.9961 311.594 22.7852C312.484 22.5625 313.299 22.3164 314.037 22.0469C314.775 21.7656 315.379 21.4785 315.848 21.1855V23.7344ZM315.672 11.8164C315.59 10.5859 315.314 9.41406 314.846 8.30078C314.377 7.17578 313.674 6.18555 312.736 5.33008C311.811 4.47461 310.627 3.79492 309.186 3.29102C307.756 2.78711 306.039 2.53516 304.035 2.53516C302.148 2.53516 300.496 2.78711 299.078 3.29102C297.66 3.79492 296.459 4.47461 295.475 5.33008C294.49 6.17383 293.717 7.1582 293.154 8.2832C292.592 9.39648 292.234 10.5742 292.082 11.8164H315.672ZM346.135 25V22.3281C345.291 22.7852 344.33 23.207 343.252 23.5938C342.186 23.9805 341.055 24.3145 339.859 24.5957C338.676 24.877 337.457 25.0938 336.203 25.2461C334.949 25.3984 333.719 25.4746 332.512 25.4746C330.941 25.4746 329.529 25.334 328.275 25.0527C327.033 24.7715 325.979 24.3555 325.111 23.8047C324.244 23.2422 323.576 22.5508 323.107 21.7305C322.639 20.8984 322.404 19.9375 322.404 18.8477C322.404 17.7695 322.674 16.8203 323.213 16C323.764 15.168 324.543 14.4473 325.551 13.8379C326.559 13.2168 327.771 12.6953 329.189 12.2734C330.619 11.8398 332.213 11.4766 333.971 11.1836C335.729 10.8789 337.627 10.6328 339.666 10.4453C341.717 10.2461 343.873 10.082 346.135 9.95312V8.10742C346.135 7.35742 345.994 6.69531 345.713 6.12109C345.432 5.54687 345.039 5.04883 344.535 4.62695C344.031 4.19336 343.439 3.83594 342.76 3.55469C342.08 3.26172 341.342 3.02734 340.545 2.85156C339.76 2.67578 338.928 2.55273 338.049 2.48242C337.182 2.40039 336.309 2.35938 335.43 2.35938C334.246 2.35938 333.168 2.41797 332.195 2.53516C331.223 2.65234 330.314 2.81641 329.471 3.02734C328.627 3.22656 327.818 3.46094 327.045 3.73047C326.271 4 325.492 4.28711 324.707 4.5918V2.02539C326.336 1.5918 328.07 1.2168 329.91 0.900391C331.762 0.572266 333.725 0.408203 335.799 0.408203C337.557 0.408203 339.197 0.560547 340.721 0.865234C342.244 1.1582 343.568 1.63281 344.693 2.28906C345.818 2.94531 346.703 3.79492 347.348 4.83789C347.992 5.86914 348.314 7.12891 348.314 8.61719V25H346.135ZM346.135 11.9043C342.303 12.1152 339.027 12.4141 336.309 12.8008C333.602 13.1875 331.387 13.6621 329.664 14.2246C327.941 14.7871 326.676 15.4434 325.867 16.1934C325.07 16.9434 324.672 17.793 324.672 18.7422C324.672 19.5156 324.865 20.2012 325.252 20.7988C325.65 21.3965 326.219 21.9004 326.957 22.3105C327.695 22.709 328.592 23.0137 329.646 23.2246C330.701 23.4238 331.885 23.5234 333.197 23.5234C333.971 23.5234 334.768 23.4824 335.588 23.4004C336.42 23.3066 337.246 23.1836 338.066 23.0312C338.887 22.8672 339.695 22.6797 340.492 22.4688C341.289 22.2461 342.039 22.0059 342.742 21.748C343.445 21.4902 344.084 21.2148 344.658 20.9219C345.244 20.6289 345.736 20.3301 346.135 20.0254V11.9043ZM379.639 25V9.05664C379.639 7.7207 379.457 6.625 379.094 5.76953C378.742 4.90234 378.232 4.2168 377.564 3.71289C376.908 3.20898 376.105 2.85742 375.156 2.6582C374.207 2.45898 373.141 2.35938 371.957 2.35938C370.586 2.35938 369.238 2.5293 367.914 2.86914C366.602 3.19727 365.359 3.61914 364.188 4.13477C363.016 4.63867 361.938 5.20117 360.953 5.82227C359.969 6.44336 359.137 7.04102 358.457 7.61523V25H356.26V0.847656H358.457V5.08398C359.277 4.56836 360.18 4.0293 361.164 3.4668C362.16 2.89258 363.227 2.37109 364.363 1.90234C365.512 1.42188 366.736 1.0293 368.037 0.724609C369.338 0.419922 370.709 0.267578 372.15 0.267578C373.779 0.267578 375.197 0.466797 376.404 0.865234C377.623 1.25195 378.631 1.80859 379.428 2.53516C380.236 3.25 380.84 4.12305 381.238 5.1543C381.637 6.17383 381.836 7.31641 381.836 8.58203V25H379.639Z" fill="white"/>
<path d="M137.869 6.10352V25H131.348V6.10352H121.1V0.847656H148.135V6.10352H137.869ZM175.574 25V14.9277H158.98V25H152.459V0.847656H158.98V9.63672H175.574V0.847656H182.096V25H175.574ZM216.584 23.8047C214.604 24.4609 212.623 24.9297 210.643 25.2109C208.674 25.5039 206.658 25.6504 204.596 25.6504C201.959 25.6504 199.609 25.3691 197.547 24.8066C195.496 24.2324 193.768 23.4062 192.361 22.3281C190.955 21.25 189.883 19.9316 189.145 18.373C188.406 16.8145 188.037 15.0508 188.037 13.082C188.037 11.2539 188.406 9.56055 189.145 8.00195C189.895 6.43164 190.949 5.07227 192.309 3.92383C193.68 2.76367 195.332 1.86133 197.266 1.2168C199.199 0.560547 201.355 0.232422 203.734 0.232422C205.926 0.232422 207.93 0.53125 209.746 1.12891C211.574 1.71484 213.139 2.58789 214.439 3.74805C215.752 4.9082 216.766 6.33789 217.48 8.03711C218.207 9.73633 218.57 11.6934 218.57 13.9082V15.5254H194.77C194.98 16.2871 195.326 16.9844 195.807 17.6172C196.299 18.25 196.961 18.7891 197.793 19.2344C198.625 19.6797 199.645 20.0254 200.852 20.2715C202.07 20.5176 203.523 20.6406 205.211 20.6406C206.406 20.6406 207.578 20.5703 208.727 20.4297C209.875 20.2773 210.947 20.084 211.943 19.8496C212.939 19.6035 213.836 19.334 214.633 19.041C215.441 18.748 216.092 18.4551 216.584 18.1621V23.8047ZM212.084 10.7441C212.025 10.1465 211.844 9.53125 211.539 8.89844C211.246 8.25391 210.777 7.67383 210.133 7.1582C209.488 6.64258 208.645 6.2207 207.602 5.89258C206.559 5.55273 205.258 5.38281 203.699 5.38281C202.234 5.38281 200.969 5.56445 199.902 5.92773C198.836 6.29102 197.939 6.74219 197.213 7.28125C196.498 7.82031 195.941 8.40039 195.543 9.02148C195.145 9.64258 194.887 10.2168 194.77 10.7441H212.084Z" fill="#24A9F4"/>
</svg>
